<svg xmlns="http://www.w3.org/2000/svg" viewBox="0 0 24 24"><title>AngelList icon</title><path d="M16.46 9.95c.74-2 1.3-3.65 1.73-4.95.4-1.3.6-2.1.6-2.4 0-.3-.06-.56-.2-.74-.14-.17-.33-.26-.57-.26-.3 0-.63.25-.94.76-.33.5-.68 1.34-1.07 2.47L14.38 9.6l2.08.35zm-2.2 4.44c-.46-.04-.9-.1-1.33-.16-.42-.08-.83-.2-1.22-.33.2.36.35.7.48 1.06.14.35.25.7.34 1.04.26-.33.54-.63.83-.9.3-.27.6-.5.92-.72zm-1.85-5l-1.77-5.15c-.46-1.3-.82-2.16-1.07-2.57-.25-.4-.53-.6-.83-.6-.23 0-.4.08-.56.26-.14.18-.2.4-.2.7 0 .5.18 1.38.56 2.64.38 1.25.96 2.9 1.73 4.93.06-.1.16-.2.28-.25.12-.05.28-.08.5-.08.05 0 .18 0 .38 0 .2.03.52.05.97.1zm-1.6 7.95c.18 0 .35-.1.5-.26.15-.2.24-.37.24-.56 0-.2-.15-.7-.46-1.46-.3-.76-.68-1.5-1.13-2.25-.33-.55-.65-.97-.97-1.25-.32-.28-.62-.42-.9-.42-.24 0-.5.14-.77.44s-.4.56-.4.8c0 .27.13.67.4 1.2.28.52.65 1.08 1.1 1.67.5.65.94 1.15 1.37 1.5.43.37.77.55 1.02.55zm-4.95-.4c.15.2.37.46.64.82.72 1 1.4 1.5 2 1.5.2 0 .4-.07.57-.2.16-.14.24-.27.24-.42 0-.17-.1-.44-.32-.83-.22-.4-.52-.82-.9-1.3-.44-.56-.8-.97-1.1-1.23-.3-.27-.53-.4-.7-.4-.38 0-.74.2-1.06.62-.32.4-.48.9-.48 1.46 0 .45.12.95.35 1.5.22.56.54 1.12.97 1.68.65.87 1.46 1.53 2.42 2 .95.46 2.02.7 3.18.7 2.14 0 3.94-.8 5.38-2.4 1.45-1.6 2.17-3.6 2.17-6.02 0-.74-.05-1.33-.16-1.76-.1-.43-.3-.75-.54-.95-.45-.38-1.33-.7-2.63-1-1.3-.3-2.66-.46-4.08-.46-.4 0-.68.07-.84.2-.16.13-.24.36-.24.67 0 .75.42 1.3 1.26 1.63.84.34 2.2.5 4.06.5h.68c.15 0 .28.07.37.18.1.1.16.28.2.52-.2.17-.58.37-1.17.6-.6.22-1.03.45-1.34.67-.67.48-1.2 1.06-1.6 1.72-.4.66-.6 1.3-.6 1.88 0 .36.1.8.26 1.3.17.52.26.84.26.96v.1l-.03.16c-.5-.03-.87-.3-1.15-.85-.3-.52-.42-1.23-.42-2.12v-.15c-.1.08-.17.14-.26.17-.08.03-.18.05-.27.05-.1 0-.2 0-.3-.02-.08-.02-.17-.04-.28-.08.03.12.06.24.08.36 0 .13.02.22.02.28 0 .4-.16.76-.48 1.05-.32.28-.7.43-1.14.43-.7 0-1.4-.34-2.1-1-.73-.7-1.08-1.35-1.08-2 0-.12 0-.23.04-.32s.07-.17.14-.24zm11.8-6.73c1 .18 1.7.6 2.1 1.25.4.64.6 1.66.6 3.06 0 2.77-.82 5.03-2.5 6.8-1.66 1.75-3.8 2.64-6.38 2.64-1.02 0-2-.2-2.97-.56-.97-.36-1.8-.88-2.5-1.53-.78-.73-1.38-1.5-1.77-2.3-.4-.8-.6-1.64-.6-2.48 0-.96.2-1.7.6-2.2.4-.52 1.05-.87 1.93-1.06-.17-.4-.3-.7-.36-.98-.08-.27-.12-.47-.12-.6 0-.5.26-1.02.78-1.53.52-.52 1-.78 1.47-.78.2 0 .4.03.62.1.22.08.47.2.75.36-.8-2.34-1.43-4.2-1.8-5.5-.4-1.3-.6-2.2-.6-2.7 0-.67.18-1.22.53-1.62.36-.4.84-.6 1.44-.6 1.03 0 2.34 2.3 3.93 6.92.28.8.48 1.4.63 1.83l.5-1.45c1.6-4.55 2.96-6.83 4.1-6.83.57 0 1.02.2 1.35.57.33.38.5.9.5 1.52 0 .48-.2 1.36-.56 2.65-.37 1.27-.92 2.95-1.67 5.03"/></svg>