<svg xmlns="http://www.w3.org/2000/svg" viewBox="0 0 24 24"><title>LinkedIn icon</title><path d="M20.45 20.45H16.9v-5.57c0-1.32-.03-3.03-1.86-3.03-1.85 0-2.13 1.44-2.13 2.94v5.65H9.36V9h3.42v1.56h.04c.5-.9 1.65-1.85 3.38-1.85 3.6 0 4.27 2.38 4.27 5.47v6.28zM5.35 7.43c-1.16 0-2.08-.92-2.08-2.06 0-1.14.92-2.06 2.07-2.06 1.14 0 2.06.93 2.06 2.07 0 1.14-.92 2.06-2.06 2.06zM7.1 20.45H3.56V9h3.56v11.45zM22.22 0H1.78C.8 0 0 .77 0 1.73v20.54C0 23.23.8 24 1.77 24h20.45c.98 0 1.78-.77 1.78-1.73V1.73C24 .77 23.2 0 22.22 0z"/></svg>